<!--?xml version="1.0" encoding="utf-8"?-->
<!-- Generator: Adobe Illustrator 18.1.1, SVG Export Plug-In . SVG Version: 6.00 Build 0)  -->

<svg version="1.1" id="_x32_" xmlns="http://www.w3.org/2000/svg" xmlns:xlink="http://www.w3.org/1999/xlink" x="0px" y="0px" viewBox="0 0 512 512" style="width: 256px; height: 256px; opacity: 1;" xml:space="preserve">
<style type="text/css">
	.st0{fill:#4B4B4B;}
</style>
<g>
	<path class="st0" d="M256,212.832c40.306,0,72.961-29.404,72.961-65.684c0-36.262-32.654-65.666-72.961-65.666
		c-40.308,0-72.98,29.404-72.98,65.666C183.02,183.428,215.692,212.832,256,212.832z" style="fill: rgb(178, 178, 178);"></path>
	<path class="st0" d="M321.93,48.636c13.806-13.999,19.122-32.508,15.232-47.52c-15.067-3.698-33.513,1.853-47.32,15.843
		c-13.806,13.98-19.139,32.509-15.232,47.503C289.641,68.187,308.105,62.626,321.93,48.636z" style="fill: rgb(178, 178, 178);"></path>
	<path class="st0" d="M459.726,395.838c-13.862-13.944-32.983-22.482-54.132-22.482h-25.696H132.102h-25.697
		c-21.239,0-40.288,8.538-54.223,22.482c-13.861,13.871-22.39,32.91-22.39,54.141c0,16.784,3.708,29.194,9.77,38.234
		c6.21,9.05,14.884,15.469,27.724,19.56C75.834,510.475,86.188,512,98.151,512h315.606c18.098,0,32.18-3.351,42.406-9.113
		c10.209-5.771,17.059-13.578,21.441-24.883c2.922-7.598,4.603-16.858,4.603-28.025C482.208,428.748,473.66,409.708,459.726,395.838
		z" style="fill: rgb(178, 178, 178);"></path>
	<path class="st0" d="M139.536,344.162h232.856c3.707-2.182,7.14-4.949,10.209-8.017c10.154-10.146,16.345-23.934,16.345-39.412
		c0-15.46-6.191-29.248-16.345-39.402c-10.063-10.136-23.944-16.336-39.394-16.336H168.793c-15.469,0-29.33,6.2-39.466,16.336
		c-10.081,10.154-16.345,23.943-16.345,39.402c0,15.478,6.264,29.267,16.345,39.412C132.376,339.212,135.81,341.906,139.536,344.162
		z" style="fill: rgb(178, 178, 178);"></path>
</g>
</svg>
