<!--?xml version="1.0" encoding="utf-8"?-->
<!-- Generator: Adobe Illustrator 15.1.0, SVG Export Plug-In . SVG Version: 6.00 Build 0)  -->

<svg version="1.1" id="_x32_" xmlns="http://www.w3.org/2000/svg" xmlns:xlink="http://www.w3.org/1999/xlink" x="0px" y="0px" width="512px" height="512px" viewBox="0 0 512 512" style="width: 256px; height: 256px; opacity: 1;" xml:space="preserve">
<style type="text/css">

	.st0{fill:#4B4B4B;}

</style>
<g>
	<path class="st0" d="M127.75,398h256.5V282.125c0-70.813-57.422-128.25-128.25-128.25c-70.844,0-128.25,57.438-128.25,128.25V398z
		 M201.875,188.625c6.094-3.531,12.563-6.5,19.344-8.813c4.344-1.469,9.063,0.844,10.547,5.188s-0.844,9.063-5.203,10.547
		C220.859,197.5,215.391,200,210.234,203l0,0c-3.984,2.313-9.063,0.969-11.359-3.016C196.563,196,197.906,190.938,201.875,188.625z
		 M147.938,282.125c0-21.906,6.578-42.375,17.844-59.438c2.531-3.813,7.688-4.875,11.531-2.344
		c3.828,2.531,4.875,7.688,2.344,11.516c-9.547,14.453-15.094,31.703-15.094,50.266V369.5c0,4.594-3.719,8.313-8.313,8.313
		s-8.313-3.719-8.313-8.313V282.125z" style="fill: rgb(178, 178, 178);"></path>
	<path class="st0" d="M404.844,424.656H107.156c-5.25,0-9.5,4.25-9.5,9.5v47.5h316.688v-47.5
		C414.344,428.906,410.094,424.656,404.844,424.656z" style="fill: rgb(178, 178, 178);"></path>
	<polygon class="st0" points="264.422,87.891 267.656,30.344 244.359,30.344 247.594,87.891 	" style="fill: rgb(178, 178, 178);"></polygon>
	<polygon class="st0" points="164.063,110.266 138.094,58.828 117.906,70.469 149.484,118.688 	" style="fill: rgb(178, 178, 178);"></polygon>
	<polygon class="st0" points="28.469,168.438 79.922,194.406 88.344,179.844 40.125,148.281 	" style="fill: rgb(178, 178, 178);"></polygon>
	<polygon class="st0" points="0,298 57.531,294.766 57.531,277.938 0,274.719 	" style="fill: rgb(178, 178, 178);"></polygon>
	<polygon class="st0" points="454.469,277.938 454.453,294.766 512,298 512,274.719 	" style="fill: rgb(178, 178, 178);"></polygon>
	<polygon class="st0" points="471.875,148.281 423.656,179.844 432.078,194.406 483.531,168.438 	" style="fill: rgb(178, 178, 178);"></polygon>
	<polygon class="st0" points="394.078,70.469 373.922,58.828 347.938,110.281 362.516,118.688 	" style="fill: rgb(178, 178, 178);"></polygon>
</g>
</svg>
